<svg width="24" height="24" viewBox="0 0 24 24" fill="none" xmlns="http://www.w3.org/2000/svg">
<rect width="24" height="24" fill="black"/>
<path d="M18.926 8.17041L17.7818 7.07277C17.7363 7.02426 17.6648 7 17.5997 7C17.5282 7 17.4632 7.02426 17.4177 7.07277L9.48597 14.5258L6.59935 11.8332C6.54734 11.7847 6.48232 11.7605 6.41731 11.7605C6.35229 11.7605 6.28728 11.7847 6.23527 11.8332L5.07802 12.9127C4.97399 13.0097 4.97399 13.1613 5.07802 13.2583L8.71881 16.6543C8.95286 16.8726 9.23892 17 9.47947 17C9.82405 17 10.1231 16.7635 10.2336 16.6665H10.2401L18.9325 8.51607C19.0235 8.41298 19.0235 8.26137 18.926 8.17041V8.17041Z" fill="white"/>
</svg>
