<svg xmlns="http://www.w3.org/2000/svg" width="16" height="16" viewBox="0 0 16 16">
  <path id="noun_avatar_2102861_2_" data-name="noun_avatar_2102861 (2)" d="M20.437,17.64,16.9,16.189a.5.5,0,0,1-.315-.462V14.9a.469.469,0,0,1,.1-.294,6.96,6.96,0,0,0,1.449-4.235A4.031,4.031,0,0,0,14,6a4.031,4.031,0,0,0-4.135,4.372,6.961,6.961,0,0,0,1.449,4.236.469.469,0,0,1,.1.293v.826a.5.5,0,0,1-.315.462L7.563,17.64A2.5,2.5,0,0,0,6,19.958v1.376A.667.667,0,0,0,6.667,22H21.333A.667.667,0,0,0,22,21.333V19.958A2.5,2.5,0,0,0,20.437,17.64Zm.23,3.026H7.333v-.709a1.172,1.172,0,0,1,.736-1.084l3.536-1.451a1.829,1.829,0,0,0,1.143-1.7V14.9a1.806,1.806,0,0,0-.394-1.128,5.667,5.667,0,0,1-1.155-3.4A2.71,2.71,0,0,1,14,7.333a2.71,2.71,0,0,1,2.8,3.039,5.667,5.667,0,0,1-1.155,3.4,1.807,1.807,0,0,0-.394,1.128v.826a1.829,1.829,0,0,0,1.143,1.7l3.536,1.451a1.173,1.173,0,0,1,.736,1.084Z" transform="translate(-6 -6)"/>
</svg>
