<svg xmlns="http://www.w3.org/2000/svg" width="281.269" height="166.097" viewBox="0 0 281.269 166.097">
  <g id="Free_Shipping" data-name="Free Shipping" transform="translate(-209.731 -2230.914)">
    <g id="Group_181" data-name="Group 181" transform="translate(209.731 2230.914)">
      <path id="Path_189" data-name="Path 189" d="M254.343,89.4l-13.027-30.2a29.82,29.82,0,0,0-27.535-18.06H192.759v-7.7A11.561,11.561,0,0,0,181.213,21.9H34.36a7.644,7.644,0,0,0-7.7,7.7,7.838,7.838,0,0,0,7.7,7.7H176.772V94.142A12.637,12.637,0,0,0,189.5,106.873h51.221V142.7a2.654,2.654,0,0,1-2.665,2.665h-9.474a28.486,28.486,0,0,0-24.574-14.212,29.128,29.128,0,0,0-24.574,14.212H100.385a28.486,28.486,0,0,0-24.574-14.212,29.128,29.128,0,0,0-24.574,14.212H24a7.7,7.7,0,1,0,0,15.4h23.39a28.449,28.449,0,0,0,56.846,0h71.354a28.449,28.449,0,0,0,56.846,0h6.218a18.132,18.132,0,0,0,18.06-18.06v-41.45A33.758,33.758,0,0,0,254.343,89.4ZM75.811,172.6a13.027,13.027,0,1,1,13.027-13.027A13.143,13.143,0,0,1,75.811,172.6Zm128.2,0a13.027,13.027,0,1,1,13.027-13.027A13.143,13.143,0,0,1,204.01,172.6ZM192.463,56.837h21.021a13.87,13.87,0,0,1,13.027,8.586l11.251,26.054h-45.3Z" transform="translate(24.558 -21.9)" fill="rgba(0,0,0,0.06)"/>
      <path id="Path_190" data-name="Path 190" d="M20,48.2H74.475a7.7,7.7,0,1,0,0-15.4H20a7.644,7.644,0,0,0-7.7,7.7A7.838,7.838,0,0,0,20,48.2Z" transform="translate(16.715 -0.528)" fill="rgba(0,0,0,0.06)"/>
      <path id="Path_191" data-name="Path 191" d="M15.1,58.2H69.575a7.7,7.7,0,1,0,0-15.4H15.1a7.644,7.644,0,0,0-7.7,7.7A7.838,7.838,0,0,0,15.1,58.2Z" transform="translate(7.108 19.079)" fill="rgba(0,0,0,0.06)"/>
      <path id="Path_192" data-name="Path 192" d="M72.669,60.5a7.644,7.644,0,0,0-7.7-7.7H10.2a7.7,7.7,0,1,0,0,15.4H64.675A7.54,7.54,0,0,0,72.669,60.5Z" transform="translate(-2.5 38.687)" fill="rgba(0,0,0,0.06)"/>
    </g>
  </g>
</svg>
