<svg xmlns="http://www.w3.org/2000/svg" width="152.613" height="161.1" viewBox="0 0 152.613 161.1">
  <g id="noun_guarantee_2519048_big" transform="translate(-5 -3.997)">
    <path id="Path_91" data-name="Path 91" d="M153.544,24.778,82.889,4.231a5.652,5.652,0,0,0-3.222,0h0L9.013,24.778A5.652,5.652,0,0,0,5,30.2V91.9c0,53.7,71.87,72.265,74.95,73.028a5.535,5.535,0,0,0,2.826-.028c4.409-1.1,74.837-19.811,74.837-73V30.2a5.652,5.652,0,0,0-4.07-5.426ZM146.309,91.9c0,41.262-55.506,59.067-65,61.7-9.5-2.628-65-20.348-65-61.7V34.472l65-18.935,65,18.907Z" transform="translate(0 0)" fill="rgba(0,0,0,0.06)"/>
    <path id="Path_92" data-name="Path 92" d="M39.068,23.652v5.907a16.957,16.957,0,0,0,2.826,33.66h8.479a5.652,5.652,0,1,1,0,11.3H33.416a5.652,5.652,0,0,0,0,11.3h5.652V91.48a5.652,5.652,0,1,0,11.3,0V85.828a16.957,16.957,0,1,0,0-33.914H41.894a5.652,5.652,0,0,1,0-11.3H58.851a5.652,5.652,0,0,0,0-11.3H50.373V23.652a5.652,5.652,0,1,0-11.3,0Z" transform="translate(36.586 25.572)" fill="rgba(0,0,0,0.06)"/>
  </g>
</svg>
