<svg width="44" height="44" viewBox="0 0 44 44" fill="none" xmlns="http://www.w3.org/2000/svg">
<path d="M5.12064 5.13072V43.2448C5.12064 43.6497 5.44882 43.9779 5.85368 43.9779H33.7064C34.111 43.9779 34.4391 43.6497 34.4391 43.2448V12.4606C34.4391 12.4443 34.4313 12.4304 34.4298 12.4144C34.4261 12.3501 34.4135 12.2867 34.3923 12.226C34.3842 12.2024 34.3784 12.1798 34.3682 12.1568C34.3326 12.0771 34.283 12.0044 34.2215 11.9422L26.8919 4.61264C26.8297 4.55075 26.7566 4.50123 26.6763 4.46591C26.6543 4.45655 26.632 4.4487 26.609 4.44176C26.5477 4.42062 26.484 4.40794 26.4191 4.40372C26.4067 4.40583 26.3922 4.39798 26.3768 4.39798H5.85368C5.44882 4.39798 5.12064 4.72586 5.12064 5.13072ZM31.9369 11.7275H27.1096V6.90024L31.9369 11.7275ZM6.58642 5.86377H25.6438V12.4606C25.6438 12.8651 25.972 13.1933 26.3765 13.1933H32.9733V42.5121H6.58642V5.86377Z" fill="#C7C7C7"/>
<path d="M35.9053 38.1142V39.5799H38.1041C38.509 39.5799 38.8371 39.2521 38.8371 38.8472V0.733053C38.8371 0.328187 38.509 7.62939e-06 38.1041 7.62939e-06H10.2514C9.84652 7.62939e-06 9.51834 0.328187 9.51834 0.733053V2.93189H10.9844V1.4658H37.371V38.1142H35.9053Z" fill="#C7C7C7"/>
<path d="M10.9844 14.6594H28.5754V16.1252H10.9844V14.6594Z" fill="#C7C7C7"/>
<path d="M10.9844 10.2614H16.8482V11.7275H10.9844V10.2614Z" fill="#C7C7C7"/>
<path d="M10.9844 19.0571H22.7119V20.5232H10.9844V19.0571Z" fill="#C7C7C7"/>
<path d="M24.1777 19.0571H28.5754V20.5232H24.1777V19.0571Z" fill="#C7C7C7"/>
<path d="M10.9844 23.4547H28.5754V24.9208H10.9844V23.4547Z" fill="#C7C7C7"/>
<path d="M10.9844 32.2504H28.5754V33.7165H10.9844V32.2504Z" fill="#C7C7C7"/>
<path d="M17.5809 27.8527H28.5753V29.3185H17.5809V27.8527Z" fill="#C7C7C7"/>
<path d="M10.9844 27.8527H16.1151V29.3185H10.9844V27.8527Z" fill="#C7C7C7"/>
<path d="M10.9844 36.6483H13.9163V38.1141H10.9844V36.6483Z" fill="#C7C7C7"/>
<path d="M15.382 36.6483H28.5754V38.1141H15.382V36.6483Z" fill="#C7C7C7"/>
</svg>
