<svg width="44" height="44" viewBox="0 0 44 44" fill="none" xmlns="http://www.w3.org/2000/svg">
<path d="M25.6662 0H15.3996C13.3779 0 11.7329 1.64484 11.7329 3.6667V30.0667C11.7329 30.4715 12.0607 30.8 12.4662 30.8H16.8662C17.2718 30.8 17.5995 30.4715 17.5995 30.0667C17.5995 29.6619 17.2718 29.3334 16.8662 29.3334H13.1995V27.8667H13.9329C14.3384 27.8667 14.6662 27.5382 14.6662 27.1334C14.6662 26.7286 14.3384 26.4001 13.9329 26.4001H13.1995V24.9334H13.9329C14.3384 24.9334 14.6662 24.6049 14.6662 24.2001C14.6662 23.7953 14.3384 23.4668 13.9329 23.4668H13.1995V22H13.9329C14.3384 22 14.6662 21.6715 14.6662 21.2667C14.6662 20.8619 14.3384 20.5334 13.9329 20.5334H13.1995V19.0667H16.8662C17.2718 19.0667 17.5995 18.7382 17.5995 18.3334C17.5995 17.9286 17.2718 17.6001 16.8662 17.6001H13.1995V16.1334H13.9329C14.3384 16.1334 14.6662 15.8049 14.6662 15.4001C14.6662 14.9953 14.3384 14.6668 13.9329 14.6668H13.1995V13.2H13.9329C14.3384 13.2 14.6662 12.8715 14.6662 12.4667C14.6662 12.0619 14.3384 11.7334 13.9329 11.7334H13.1995V10.2667H13.9329C14.3384 10.2667 14.6662 9.93816 14.6662 9.53339C14.6662 9.12862 14.3384 8.80009 13.9329 8.80009H13.1995V7.3333H16.8662C17.2718 7.3333 17.5995 7.00477 17.5995 6.6C17.5995 6.19523 17.2718 5.8667 16.8662 5.8667H13.1995V3.6667C13.1995 2.45377 14.1866 1.4667 15.3996 1.4667H25.6662C26.8792 1.4667 27.8662 2.45377 27.8662 3.6667V40.3334C27.8662 41.5463 26.8792 42.5334 25.6662 42.5334H15.3996C14.1867 42.5334 13.1996 41.5463 13.1996 40.3334V33C13.1996 32.5952 12.8719 32.2667 12.4663 32.2667C12.0608 32.2667 11.733 32.5952 11.733 33V40.3333C11.733 42.3551 13.3779 44 15.3997 44H25.6664C27.6882 44 29.3331 42.3552 29.3331 40.3333V3.6667C29.3329 1.64484 27.6881 0 25.6662 0Z" fill="#C7C7C7"/>
<path d="M2.93372 9.53261V35.9326C2.93372 36.3374 3.26148 36.6659 3.66702 36.6659C4.07256 36.6659 4.40033 36.3374 4.40033 35.9326V9.53261C4.40033 9.12785 4.07256 8.79931 3.66702 8.79931C3.26148 8.79931 2.93372 9.12776 2.93372 9.53261Z" fill="#C7C7C7"/>
<path d="M4.32256 0.404763C4.07394 -0.0924712 3.25994 -0.0924712 3.01064 0.404763L0.0772442 6.27146C0.026627 6.3727 0.000244141 6.48562 0.000244141 6.59923V40.3325C0.000244141 42.3543 1.64509 43.9992 3.66694 43.9992C5.68871 43.9992 7.33364 42.3544 7.33364 40.3325V38.8659C7.33364 38.4611 7.00587 38.1325 6.60033 38.1325H3.66694C3.2614 38.1325 2.93364 38.4611 2.93364 38.8659C2.93364 39.2706 3.2614 39.5992 3.66694 39.5992H5.86694V40.3325C5.86694 41.5454 4.87986 42.5325 3.66694 42.5325C2.45402 42.5325 1.46694 41.5454 1.46694 40.3325V6.77231L3.66694 2.3723L5.41371 5.86592H3.66694C3.2614 5.86592 2.93364 6.19446 2.93364 6.59923C2.93364 7.00399 3.2614 7.33253 3.66694 7.33253H5.86694V35.9325C5.86694 36.3373 6.19471 36.6659 6.60025 36.6659C7.00579 36.6659 7.33355 36.3373 7.33355 35.9325V6.60077V6.58754C7.33132 6.46877 7.30133 6.35654 7.24994 6.25831L4.32256 0.404763Z" fill="#C7C7C7"/>
<path d="M23.4662 36.6667C23.4662 35.0489 22.1506 33.7334 20.5329 33.7334C18.9153 33.7334 17.5996 35.049 17.5996 36.6667C17.5996 38.2844 18.9153 39.6 20.5329 39.6C22.1506 39.6 23.4662 38.2844 23.4662 36.6667ZM19.0662 36.6667C19.0662 35.8578 19.724 35.2 20.5329 35.2C21.3411 35.2 21.9996 35.8578 21.9996 36.6667C21.9996 37.4756 21.3411 38.1334 20.5329 38.1334C19.7241 38.1333 19.0662 37.4755 19.0662 36.6667Z" fill="#C7C7C7"/>
<path d="M37.3997 35.2C36.9941 35.2 36.6664 35.5285 36.6664 35.9333C36.6664 36.3381 36.9941 36.6666 37.3997 36.6666H43.2664C43.6719 36.6666 43.9997 36.3381 43.9997 35.9333V31.5333C43.9997 29.5115 42.3548 27.8666 40.333 27.8666H37.3997C35.3779 27.8666 33.733 29.5115 33.733 31.5333V40.3333C33.733 42.3551 35.3778 44 37.3997 44H40.333C42.3547 44 43.9997 42.3552 43.9997 40.3333V38.8666C43.9997 38.4618 43.6719 38.1333 43.2664 38.1333C42.8608 38.1333 42.5331 38.4618 42.5331 38.8666V40.3333C42.5331 41.5462 41.546 42.5333 40.3331 42.5333H37.3998C36.1868 42.5333 35.1998 41.5462 35.1998 40.3333V31.5333C35.1998 30.3204 36.1868 29.3333 37.3998 29.3333H40.3331C41.546 29.3333 42.5331 30.3204 42.5331 31.5333V35.2H37.3997Z" fill="#C7C7C7"/>
</svg>
