<svg xmlns="http://www.w3.org/2000/svg" width="199.654" height="168.044" viewBox="0 0 199.654 168.044">
  <path id="_ionicons_svg_ios-wallet_big" d="M218.858,106H76.8C60.91,106,48,117.775,48,132.26v73.517c0,14.485,12.91,26.256,28.8,26.256H218.858c15.886,0,28.8-11.772,28.8-26.256V132.26C247.654,117.775,234.744,106,218.858,106ZM189.534,64.431,76.8,84.517c-8.639,1.75-21.117,9.671-21.117,19.3,0,0,7.2-8.314,23.517-8.314H216.938V86.53c0-5.514-2.4-12.559-6.671-16.454A24.163,24.163,0,0,0,189.534,64.431Z" transform="translate(-48 -63.989)" fill="rgba(0,0,0,0.08)"/>
</svg>
