<svg xmlns="http://www.w3.org/2000/svg" width="22" height="22" viewBox="0 0 22 22">
  <path id="_ionicons_svg_ios-wallet" d="M66.827,69.489H51.173A3.316,3.316,0,0,0,48,72.927v9.625a3.316,3.316,0,0,0,3.173,3.437H66.827A3.316,3.316,0,0,0,70,82.551V72.927A3.316,3.316,0,0,0,66.827,69.489ZM63.6,64.047l-12.423,2.63A3.072,3.072,0,0,0,48.846,69.2a3.233,3.233,0,0,1,2.591-1.089H66.615V66.94a3.456,3.456,0,0,0-.735-2.154A2.378,2.378,0,0,0,63.6,64.047Z" transform="translate(-48 -63.989)" fill="rgba(0,0,0,0.87)"/>
</svg>
