<svg width="8" height="6" viewBox="0 0 8 6" fill="none" xmlns="http://www.w3.org/2000/svg">
<path d="M7.87213 1.03231L7.61008 0.768437C7.52761 0.68603 7.41788 0.640631 7.30061 0.640631C7.18341 0.640631 7.07355 0.68603 6.99108 0.768437L4.00179 3.75786L1.00905 0.76512C0.926707 0.682712 0.816852 0.637379 0.699648 0.637379C0.582444 0.637379 0.472524 0.682712 0.390117 0.76512L0.128001 1.02737C-0.042667 1.1979 -0.042667 1.47569 0.128001 1.64623L3.69122 5.22226C3.77356 5.3046 3.88328 5.36262 4.00153 5.36262H4.00289C4.12016 5.36262 4.22989 5.30454 4.31223 5.22226L7.87213 1.65592C7.9546 1.57358 7.99987 1.46054 8 1.34334C8 1.22607 7.9546 1.11459 7.87213 1.03231Z" fill="black"/>
</svg>
