<svg width="8" height="6" viewBox="0 0 8 6" fill="none" xmlns="http://www.w3.org/2000/svg">
<path d="M7.87213 4.96769L7.61008 5.23156C7.52761 5.31397 7.41788 5.35937 7.30061 5.35937C7.18341 5.35937 7.07355 5.31397 6.99108 5.23156L4.00179 2.24214L1.00905 5.23488C0.926707 5.31729 0.816852 5.36262 0.699648 5.36262C0.582444 5.36262 0.472524 5.31729 0.390117 5.23488L0.128001 4.97263C-0.042667 4.8021 -0.042667 4.52431 0.128001 4.35377L3.69122 0.777739C3.77356 0.695397 3.88328 0.63738 4.00153 0.63738H4.00289C4.12016 0.63738 4.22989 0.695462 4.31223 0.777739L7.87213 4.34408C7.9546 4.42642 7.99987 4.53946 8 4.65666C8 4.77393 7.9546 4.88541 7.87213 4.96769Z" fill="black"/>
</svg>
