<svg width="14" height="14" viewBox="0 0 14 14" fill="none" xmlns="http://www.w3.org/2000/svg">
<path d="M11.8125 10.0078C11.5103 10.0078 11.2656 10.2525 11.2656 10.5547C11.2656 10.8569 11.5103 11.1016 11.8125 11.1016C12.1147 11.1016 12.3594 10.8569 12.3594 10.5547C12.3594 10.2525 12.1147 10.0078 11.8125 10.0078Z" fill="black"/>
<path d="M11.5391 7.82031C11.3881 7.82031 11.2656 7.94283 11.2656 8.09375C11.2656 8.24467 11.3881 8.36719 11.5391 8.36719C11.69 8.36719 11.8125 8.24467 11.8125 8.09375C11.8125 7.94283 11.69 7.82031 11.5391 7.82031Z" fill="black"/>
<path d="M3.44531 10.0078C3.14314 10.0078 2.89844 10.2525 2.89844 10.5547C2.89844 10.8569 3.14314 11.1016 3.44531 11.1016C3.74748 11.1016 3.99219 10.8569 3.99219 10.5547C3.99219 10.2525 3.74748 10.0078 3.44531 10.0078Z" fill="black"/>
<path d="M12.8507 6.74408L12.3792 4.85822C12.5468 4.69789 12.6328 4.48523 12.6328 4.26562C12.6328 3.81328 12.2648 3.44531 11.8125 3.44531H9.625V2.625C9.625 2.17265 9.25703 1.80469 8.80469 1.80469H0.820312C0.367966 1.80469 0 2.17265 0 2.625V9.73438C0 10.1867 0.367966 10.5547 0.820312 10.5547H1.80469C1.80469 11.4594 2.54062 12.1953 3.44531 12.1953C4.35001 12.1953 5.08594 11.4594 5.08594 10.5547H10.1719C10.1719 11.4594 10.9078 12.1953 11.8125 12.1953C12.7172 12.1953 13.4531 11.4594 13.4531 10.5547C13.4531 10.5391 13.4524 10.5236 13.452 10.508C13.7708 10.3955 14 10.0912 14 9.73438V8.09375C14 7.414 13.5014 6.84875 12.8507 6.74408ZM11.8724 5.08594L12.2826 6.72656H10.0117L10.6386 6.09958C10.7455 5.99277 10.7455 5.81973 10.6386 5.71292C10.5318 5.60611 10.3588 5.60611 10.252 5.71292L9.625 6.3398V5.08594H11.8724ZM12.0859 4.26562C12.0859 4.41655 11.9634 4.53906 11.8125 4.53906H9.625V3.99219H11.8125C11.9633 3.99219 12.0859 4.11481 12.0859 4.26562ZM3.44531 11.6484C2.84225 11.6484 2.35156 11.1577 2.35156 10.5547C2.35156 9.94341 2.85112 9.46094 3.44531 9.46094C4.04089 9.46094 4.53906 9.94469 4.53906 10.5547C4.53906 11.1577 4.04837 11.6484 3.44531 11.6484ZM4.99205 10.0078C4.76369 9.36256 4.14557 8.91406 3.44531 8.91406C2.74474 8.91406 2.1264 9.36288 1.89847 10.0078H0.820312C0.669495 10.0078 0.546875 9.88519 0.546875 9.73438V2.625C0.546875 2.47418 0.669495 2.35156 0.820312 2.35156H8.80469C8.95551 2.35156 9.07812 2.47418 9.07812 2.625V10.0078H4.99205ZM11.8125 11.6484C11.2094 11.6484 10.7188 11.1577 10.7188 10.5547C10.7188 9.94341 11.2183 9.46094 11.8125 9.46094C12.4081 9.46094 12.9062 9.94469 12.9062 10.5547C12.9062 11.1577 12.4156 11.6484 11.8125 11.6484ZM13.3398 9.95558C13.0972 9.33842 12.4937 8.91406 11.8125 8.91406C11.1119 8.91406 10.4936 9.36288 10.2657 10.0078H9.625V7.27344H12.6328C12.9892 7.27344 13.2932 7.50201 13.4061 7.82031H12.6328C12.4818 7.82031 12.3594 7.94272 12.3594 8.09375C12.3594 8.24478 12.4818 8.36719 12.6328 8.36719H13.4531V9.73438C13.4531 9.82527 13.4083 9.90581 13.3398 9.95558V9.95558Z" fill="black"/>
<path d="M4.8125 3.44531C3.45557 3.44531 2.35156 4.54932 2.35156 5.90625C2.35156 7.26318 3.45557 8.36719 4.8125 8.36719C6.16943 8.36719 7.27344 7.26318 7.27344 5.90625C7.27344 4.54932 6.16943 3.44531 4.8125 3.44531ZM4.8125 7.82031C3.7571 7.82031 2.89844 6.96165 2.89844 5.90625C2.89844 4.85085 3.7571 3.99219 4.8125 3.99219C5.8679 3.99219 6.72656 4.85085 6.72656 5.90625C6.72656 6.96165 5.8679 7.82031 4.8125 7.82031Z" fill="black"/>
<path d="M5.90625 5.63281H5.08594V4.8125C5.08594 4.66147 4.96353 4.53906 4.8125 4.53906C4.66147 4.53906 4.53906 4.66147 4.53906 4.8125V5.90625C4.53906 6.05728 4.66147 6.17969 4.8125 6.17969H5.90625C6.05728 6.17969 6.17969 6.05728 6.17969 5.90625C6.17969 5.75522 6.05728 5.63281 5.90625 5.63281Z" fill="black"/>
</svg>
