<svg width="14" height="14" viewBox="0 0 14 14" fill="none" xmlns="http://www.w3.org/2000/svg">
<g clip-path="url(#clip0)">
<path d="M3.26668 9.56669C2.88009 9.56669 2.56668 9.88011 2.56668 10.2667C2.56668 10.6533 2.88007 10.9667 3.26668 10.9667C3.65329 10.9667 3.96667 10.6533 3.96667 10.2667C3.96623 9.88027 3.6531 9.5671 3.26668 9.56669ZM3.26668 10.5C3.13781 10.5 3.03335 10.3956 3.03335 10.2667C3.03335 10.1378 3.13781 10.0334 3.26668 10.0334C3.39555 10.0334 3.5 10.1378 3.5 10.2667C3.49986 10.3955 3.39549 10.4999 3.26668 10.5Z" fill="black"/>
<path d="M10.7334 9.56669C10.3468 9.56669 10.0334 9.88011 10.0334 10.2667C10.0334 10.6533 10.3468 10.9667 10.7334 10.9667C11.1199 10.9667 11.4334 10.6533 11.4334 10.2667C11.4329 9.88027 11.1198 9.5671 10.7334 9.56669ZM10.7334 10.5C10.6045 10.5 10.5 10.3956 10.5 10.2667C10.5 10.1378 10.6045 10.0334 10.7334 10.0334C10.8622 10.0334 10.9667 10.1378 10.9667 10.2667C10.9666 10.3955 10.8622 10.4999 10.7334 10.5Z" fill="black"/>
<path d="M13.8222 6.24532L12.2148 4.43516C12.0816 4.28521 11.8906 4.19959 11.69 4.2H9.56668V2.8C9.56627 2.41358 9.2531 2.10041 8.86668 2.1H0.7C0.313578 2.10041 0.000410179 2.41358 2.27874e-08 2.8V8.86669C-2.7321e-05 8.92857 0.0245547 8.98793 0.0683321 9.03171C0.112082 9.07546 0.171445 9.10004 0.233352 9.10004H0.466676V9.80004C0.467086 10.1865 0.780254 10.4996 1.16668 10.5H1.65197C1.76698 11.3034 2.45511 11.9 3.26668 11.9C4.07824 11.9 4.76637 11.3034 4.88138 10.5H9.11868C9.23368 11.3034 9.92182 11.9 10.7334 11.9C11.5449 11.9 12.2331 11.3034 12.3481 10.5H13.3C13.6864 10.4996 13.9996 10.1865 14 9.80004V6.71063C13.9998 6.53894 13.9365 6.37334 13.8222 6.24532ZM0.466676 8.63333V2.8C0.466812 2.67118 0.571184 2.56678 0.7 2.56667H8.86668C8.99549 2.56681 9.09989 2.67118 9.1 2.8V8.63333H0.466676ZM1.65197 10.0333H1.16668C1.03786 10.0332 0.933461 9.92883 0.933352 9.80001V9.10001H2.12581C1.86949 9.35053 1.70294 9.67858 1.65197 10.0333ZM3.26668 11.4333C2.62235 11.4333 2.1 10.911 2.1 10.2667C2.1 9.62233 2.62235 9.10001 3.26668 9.10001C3.911 9.10001 4.43335 9.62236 4.43335 10.2667C4.43259 10.9107 3.91068 11.4326 3.26668 11.4333ZM5.6 10.0333H4.88135C4.83038 9.67858 4.66386 9.35051 4.40754 9.10001H5.6V10.0333ZM7.7 10.0333H6.06668V9.10001H7.7V10.0333ZM9.11865 10.0333H8.16668V9.10001H9.59246C9.33614 9.35053 9.16962 9.67858 9.11865 10.0333ZM10.7333 11.4333C10.089 11.4333 9.56665 10.911 9.56665 10.2667C9.56665 9.62233 10.089 9.09998 10.7333 9.09998C11.3777 9.09998 11.9 9.62233 11.9 10.2667C11.8992 10.9107 11.3774 11.4326 10.7333 11.4333ZM13.5333 9.80001C13.5332 9.92883 13.4288 10.0332 13.3 10.0333H12.348C12.2317 9.23071 11.5444 8.63478 10.7333 8.63333H9.56665V4.66668H10.5V7.00001C10.5004 7.38643 10.8136 7.6996 11.2 7.70001H13.5333V9.80001ZM13.5333 7.23333H11.2C11.0712 7.23319 10.9668 7.12882 10.9667 7.00001V4.66668H11.69C11.757 4.6663 11.8209 4.69468 11.8656 4.74461L13.4735 6.55545C13.5118 6.59811 13.5331 6.65332 13.5334 6.71063V7.23333H13.5333Z" fill="black"/>
</g>
<defs>
<clipPath id="clip0">
<rect width="14" height="14" fill="white"/>
</clipPath>
</defs>
</svg>
